<svg xmlns="http://www.w3.org/2000/svg" version="1.1" xmlns:xlink="http://www.w3.org/1999/xlink" xmlns:svgjs="http://svgjs.dev/svgjs" width="1440" height="560" preserveAspectRatio="none" viewBox="0 0 1440 560"><g mask="url(&quot;#SvgjsMask1348&quot;)" fill="none"><rect width="1440" height="560" x="0" y="0" fill="url(&quot;#SvgjsLinearGradient1349&quot;)"></rect><path d="M1440 0L746.65 0L1440 176.84z" fill="rgba(255, 255, 255, .1)"></path><path d="M746.65 0L1440 176.84L1440 230.84L711.85 0z" fill="rgba(255, 255, 255, .075)"></path><path d="M711.85 0L1440 230.84L1440 288.96L525.6800000000001 0z" fill="rgba(255, 255, 255, .05)"></path><path d="M525.6800000000001 0L1440 288.96L1440 421.28L338.93000000000006 0z" fill="rgba(255, 255, 255, .025)"></path><path d="M0 560L651.67 560L0 299.84z" fill="rgba(0, 0, 0, .1)"></path><path d="M0 299.84L651.67 560L1065.21 560L0 256.95z" fill="rgba(0, 0, 0, .075)"></path><path d="M0 256.95L1065.21 560L1284.91 560L0 155.70999999999998z" fill="rgba(0, 0, 0, .05)"></path><path d="M0 155.70999999999998L1284.91 560L1318.26 560L0 126.54999999999998z" fill="rgba(0, 0, 0, .025)"></path></g><defs><mask id="SvgjsMask1348"><rect width="1440" height="560" fill="#ffffff"></rect></mask><linearGradient x1="15.28%" y1="-39.29%" x2="84.72%" y2="139.29%" gradientUnits="userSpaceOnUse" id="SvgjsLinearGradient1349"><stop stop-color="#0e2a47" offset="0"></stop><stop stop-color="rgba(0, 0, 0, 1)" offset="1"></stop></linearGradient></defs></svg>